# xmcd
#
# Track frame offsets:
#	150
#	12537
#	24001
#	36561
#	48934
#	60553
#	72296
#	83946
#	95466
#	108107
#	120581
#	133342
#	147509
#	162442
#	175217
#	188997
#	198548
#	211093
#	222930
#	233621
#
# Disc length: 3259 seconds
# Revision: 0
# Processed by: cddbd v1.5.2PL0 Copyright (c) Steve Scherf et al.
# Submitted via: dBpowerAMP V12.0
#
DISCID=1f0cb914
DTITLE=Roy Acuff - Songs Of The Smokey Mountains
DYEAR=1949
DGENRE=Classic Country
TTITLE0=The Wreck On The Highway
TTITLE1=Fire Ball Mail
TTITLE2=The Precious Jewel
TTITLE3=Pins And Needles (In My Heart)
TTITLE4=Wabash Cannon Ball
TTITLE5=Freight Train Blues
TTITLE6=Wait For The Light To Shine
TTITLE7=Low And Lonely
TTITLE8=The Great Speckled Bird
TTITLE9=Wabash Cannon Ball
TTITLE10=Pins And Needles (In My Heart)
TTITLE11=The Precious Jewel
TTITLE12=The Great Titanic
TTITLE13=Come Back Little Pal
TTITLE14=The Wreck On The Highway
TTITLE15=Night Train To Memphis
TTITLE16=The Great Judgement Morning
TTITLE17=Lonely Mound Of Clay
TTITLE18=Fire Ball Mail
TTITLE19=I'm Building A Home (In The Sky)
EXTD=
EXTT0=
EXTT1=
EXTT2=
EXTT3=
EXTT4=
EXTT5=
EXTT6=
EXTT7=
EXTT8=
EXTT9=
EXTT10=
EXTT11=
EXTT12=
EXTT13=
EXTT14=
EXTT15=
EXTT16=
EXTT17=
EXTT18=
EXTT19=
PLAYORDER=
